<?xml version="1.0" encoding="UTF-8" standalone="no"?>
<svg
   xmlns:dc="http://purl.org/dc/elements/1.1/"
   xmlns:cc="http://creativecommons.org/ns#"
   xmlns:rdf="http://www.w3.org/1999/02/22-rdf-syntax-ns#"
   xmlns:svg="http://www.w3.org/2000/svg"
   xmlns="http://www.w3.org/2000/svg"
   xmlns:xlink="http://www.w3.org/1999/xlink"
   xmlns:sodipodi="http://sodipodi.sourceforge.net/DTD/sodipodi-0.dtd"
   xmlns:inkscape="http://www.inkscape.org/namespaces/inkscape"
   version="1.1"
   id="Capa_1"
   x="0px"
   y="0px"
   width="376.896px"
   height="84.667px"
   viewBox="0 0 376.896 84.667"
   enable-background="new 0 0 376.896 84.667"
   xml:space="preserve"
   sodipodi:docname="logo.svg"
   inkscape:version="1.0.2 (394de47547, 2021-03-26)"><metadata
   id="metadata165"><rdf:RDF><cc:Work
       rdf:about=""><dc:format>image/svg+xml</dc:format><dc:type
         rdf:resource="http://purl.org/dc/dcmitype/StillImage" /><dc:title></dc:title></cc:Work></rdf:RDF></metadata><defs
   id="defs163"><clipPath
     clipPathUnits="userSpaceOnUse"
     id="clipPath1484-3-3-7-367-6"><path
       d="m 112.251,602.83 c -2.863,0 -5.184,-2.597 -5.184,-5.8 v 0 -39.866 c 0,-2.476 1.793,-4.483 4.007,-4.483 v 0 h 23.12 c 0,0 20.371,2.309 20.371,25.075 v 0 c 0,23.26 -20.076,25.074 -20.076,25.074 v 0 z"
       id="path1482-6-6-5-53-2"
       inkscape:connector-curvature="0" /></clipPath><linearGradient
     inkscape:collect="always"
     xlink:href="#linearGradient1494"
     id="linearGradient1610"
     gradientUnits="userSpaceOnUse"
     gradientTransform="matrix(28.699583,-51.501987,-51.501987,-28.699583,120.27034,589.79346)"
     x1="0"
     y1="0"
     x2="1"
     y2="0"
     spreadMethod="pad" /><linearGradient
     x1="0"
     y1="0"
     x2="1"
     y2="0"
     gradientUnits="userSpaceOnUse"
     gradientTransform="matrix(28.699583,-51.501987,-51.501987,-28.699583,120.27034,589.79346)"
     spreadMethod="pad"
     id="linearGradient1494"><stop
       style="stop-opacity:1;stop-color:#ee2346"
       offset="0"
       id="stop1490" /><stop
       style="stop-opacity:1;stop-color:#f0532d"
       offset="1"
       id="stop1492" /></linearGradient></defs><sodipodi:namedview
   pagecolor="#ffffff"
   bordercolor="#666666"
   borderopacity="1"
   objecttolerance="10"
   gridtolerance="10"
   guidetolerance="10"
   inkscape:pageopacity="0"
   inkscape:pageshadow="2"
   inkscape:window-width="1848"
   inkscape:window-height="1016"
   id="namedview161"
   showgrid="false"
   inkscape:zoom="1.203486"
   inkscape:cx="76.971739"
   inkscape:cy="126.86514"
   inkscape:window-x="72"
   inkscape:window-y="27"
   inkscape:window-maximized="1"
   inkscape:current-layer="Capa_1" />
<g
   id="g8">
	<defs
   id="defs3">
		<rect
   id="SVGID_1_"
   width="390.446"
   height="84.667" />
	</defs>
	<clipPath
   id="SVGID_2_">
		<use
   xlink:href="#SVGID_1_"
   overflow="visible"
   id="use5" />
	</clipPath>
</g>
<g
   id="g16">
	<defs
   id="defs11">
		<path
   id="SVGID_3_"
   d="M16.162,31.617c-2.163,0-3.917,2.051-3.917,4.583v31.5c0,1.957,1.355,3.543,3.029,3.543h17.467    c0,0,15.393-1.825,15.393-19.813c0-18.379-15.17-19.813-15.17-19.813H16.162z" />
	</defs>
	<clipPath
   id="SVGID_4_">
		<use
   xlink:href="#SVGID_3_"
   overflow="visible"
   id="use13" />
	</clipPath>
</g>
<g
   id="g24">
	<defs
   id="defs19">
		<rect
   id="SVGID_5_"
   width="390.446"
   height="84.667" />
	</defs>
	<clipPath
   id="SVGID_6_">
		<use
   xlink:href="#SVGID_5_"
   overflow="visible"
   id="use21" />
	</clipPath>
</g>


<g
   id="g158">
	<defs
   id="defs61">
		<rect
   id="SVGID_13_"
   width="390.446"
   height="84.667" />
	</defs>
	<clipPath
   id="SVGID_14_">
		<use
   xlink:href="#SVGID_13_"
   overflow="visible"
   id="use63" />
	</clipPath>
	<path
   clip-path="url(#SVGID_14_)"
   fill="#FFFFFF"
   d="M24.84,35.016c-0.451-0.469-1.185-0.467-1.637,0   c-0.453,0.474-0.453,1.241,0,1.714c3.75,3.921,5.816,9.141,5.816,14.701c0,5.558-2.066,10.779-5.816,14.704   c-0.219,0.228-0.341,0.53-0.341,0.853c0,0.321,0.122,0.627,0.339,0.856c0.215,0.225,0.514,0.354,0.82,0.354   c0.31,0,0.6-0.126,0.819-0.354c4.187-4.378,6.494-10.207,6.494-16.413S29.027,39.395,24.84,35.016 M15.212,41.684   c-0.451-0.469-1.187-0.469-1.634,0c-0.221,0.23-0.341,0.533-0.341,0.857c0,0.322,0.12,0.625,0.341,0.853   c4.235,4.432,4.235,11.641,0,16.071c-0.221,0.228-0.341,0.531-0.341,0.853c0,0.324,0.12,0.629,0.339,0.857   c0.217,0.228,0.509,0.355,0.82,0.355c0.306,0,0.606-0.131,0.816-0.354c2.486-2.6,3.857-6.062,3.857-9.748   C19.069,47.743,17.698,44.283,15.212,41.684 M20.027,38.351c-0.219-0.229-0.509-0.355-0.818-0.355s-0.601,0.125-0.818,0.355   c-0.451,0.472-0.451,1.239,0,1.71c2.899,3.032,4.495,7.069,4.495,11.37c0,4.298-1.596,8.337-4.497,11.369   c-0.449,0.471-0.449,1.237,0.002,1.711c0.221,0.227,0.511,0.353,0.816,0.353c0.309,0,0.601-0.126,0.818-0.354   c3.337-3.488,5.175-8.132,5.175-13.078S23.362,41.838,20.027,38.351"
   id="path66" />
	<path
   clip-path="url(#SVGID_14_)"
   fill="#FFFFFF"
   d="M7.132,45.482v1.728c1.868,0.412,3.273,2.146,3.273,4.22   c0,2.072-1.405,3.81-3.273,4.219v1.728c2.768-0.431,4.899-2.934,4.899-5.946C12.031,48.418,9.9,45.915,7.132,45.482"
   id="path68" />
	<path
   clip-path="url(#SVGID_14_)"
   fill="#3D245F"
   d="M108.813,36.948c2.973,0.872,5.123,3.677,5.123,6.995   c0,4.114-3.196,7.428-8.005,7.428h-10.41V24.002h10.372c4.32,0,7.221,2.924,7.221,6.627c0,2.854-1.786,5.383-4.301,6.317V36.948z    M96.791,25.264v11.074h9.568c3.079,0,5.456-2.629,5.456-5.58c0-3.08-2.503-5.494-5.66-5.494H96.791z M112.625,43.834   c0-3.458-2.775-6.234-6.275-6.234h-9.559v12.501h9.412C109.82,50.101,112.625,47.364,112.625,43.834"
   id="path70" />
	<rect
   x="120.698"
   y="24.003"
   clip-path="url(#SVGID_14_)"
   fill="#3D245F"
   width="1.281"
   height="27.368"
   id="rect72" />
	<path
   clip-path="url(#SVGID_14_)"
   fill="#3D245F"
   d="M128.351,37.717c0-8.034,5.885-14.125,14.115-14.125   s14.115,6.06,14.115,14.125c0,8.035-5.885,14.064-14.115,14.064S128.351,45.722,128.351,37.717 M155.279,37.717   c0-7.34-5.348-12.864-12.814-12.864c-7.468,0-12.815,5.562-12.815,12.864c0,7.271,5.347,12.804,12.815,12.804   C149.932,50.521,155.279,45.027,155.279,37.717"
   id="path74" />
	<path
   clip-path="url(#SVGID_14_)"
   fill="#3D245F"
   d="M186.606,37.664c0,7.987-5.863,13.707-14.128,13.707h-11.076V24.003h11.076   C180.765,24.003,186.606,29.668,186.606,37.664 M178.877,37.664c0-4.061-2.702-6.757-6.754-6.757h-3.148v13.56h3.148   C176.175,44.467,178.877,41.703,178.877,37.664"
   id="path76" />
	<polygon
   clip-path="url(#SVGID_14_)"
   fill="#3D245F"
   points="202.994,40.666 202.994,51.371 195.314,51.371 195.314,40.647    185.819,24.002 194.181,24.002 199.185,33.893 204.188,24.002 212.551,24.002  "
   id="polygon78" />
	<polygon
   clip-path="url(#SVGID_14_)"
   fill="#3D245F"
   points="239.887,24.003 239.887,51.371 233.649,51.371 222.777,36.518    222.777,51.371 215.471,51.371 215.471,24.003 222.07,24.003 232.579,38.36 232.579,24.003  "
   id="polygon80" />
	<path
   clip-path="url(#SVGID_14_)"
   fill="#3D245F"
   d="M261.825,46.927h-9.7l-1.516,4.444h-8.079l10.75-27.368h7.369l10.987,27.368   h-8.303L261.825,46.927z M256.96,32.546l-2.998,8.48h6.025L256.96,32.546z"
   id="path82" />
	<polygon
   clip-path="url(#SVGID_14_)"
   fill="#3D245F"
   points="301.334,51.371 299.197,35.609 291.938,51.416 289.711,51.416    282.456,35.617 280.351,51.371 272.71,51.371 276.85,24.003 284.379,24.003 290.823,38.894 297.313,24.003 304.841,24.003    308.941,51.371  "
   id="polygon84" />
	<rect
   x="312.66"
   y="24.003"
   clip-path="url(#SVGID_14_)"
   fill="#3D245F"
   width="7.641"
   height="27.368"
   id="rect86" />
	<path
   clip-path="url(#SVGID_14_)"
   fill="#3D245F"
   d="M338.728,52.063c-8.33,0-14.552-6.167-14.552-14.353   c0-8.232,6.222-14.399,14.552-14.399c7.173,0,12.729,4.734,13.841,11.673h-7.64c-0.939-2.807-3.304-4.629-6.185-4.629   c-3.876,0-6.718,3.116-6.718,7.355c0,4.22,2.842,7.291,6.718,7.291c3.035,0,5.423-1.979,6.189-5.02h7.713   C351.605,47.177,346.017,52.063,338.728,52.063"
   id="path88" />
	<path
   clip-path="url(#SVGID_14_)"
   fill="#3D245F"
   d="M354.921,42.534h7.778c0,1.955,1.509,2.907,3.227,2.907   c1.581,0,3.089-0.842,3.089-2.335c0-1.718-2.131-2.215-4.736-2.847c-3.955-0.983-9.004-2.194-9.004-8.427   c0-5.389,3.959-8.476,10.412-8.476c6.561,0,10.323,3.369,10.323,8.936h-7.562c0-1.73-1.29-2.542-2.853-2.542   c-1.343,0-2.633,0.582-2.633,1.859c0,1.555,2.063,2.07,4.639,2.718c4.028,1.038,9.295,2.384,9.295,8.634   c0,5.977-4.593,9.08-10.948,9.08C359.251,52.04,354.921,48.499,354.921,42.534"
   id="path90" />
	<path
   clip-path="url(#SVGID_14_)"
   fill="#3C3C3B"
   d="M318.844,55.89h0.583v0.692h-0.583V55.89z M318.936,58.073h0.398v6.715h-0.398   V58.073z"
   id="path92" />
	<path
   clip-path="url(#SVGID_14_)"
   fill="#3C3C3B"
   d="M128.933,55.89h0.585v0.692h-0.585V55.89z M129.024,58.073h0.398v6.715h-0.398   V58.073z"
   id="path94" />
	<path
   clip-path="url(#SVGID_14_)"
   fill="#3C3C3B"
   d="M137.521,60.815v3.973h-0.397v-3.903c0-1.602-0.872-2.567-2.31-2.567   c-1.37,0-2.542,1.177-2.542,2.561v3.91h-0.397v-6.715h0.312l0.07,1.55c0.458-0.991,1.476-1.679,2.632-1.679   C136.507,57.944,137.521,59.085,137.521,60.815"
   id="path96" />
	<path
   clip-path="url(#SVGID_14_)"
   fill="#3C3C3B"
   d="M145.491,60.815v3.973h-0.397v-3.903c0-1.602-0.871-2.567-2.31-2.567   c-1.372,0-2.544,1.177-2.544,2.561v3.91h-0.397v-6.715h0.314l0.07,1.55c0.458-0.991,1.476-1.679,2.631-1.679   C144.478,57.944,145.491,59.085,145.491,60.815"
   id="path98" />
	<path
   clip-path="url(#SVGID_14_)"
   fill="#3C3C3B"
   d="M147.216,61.431c0-2.008,1.501-3.485,3.493-3.485   c2.003,0,3.494,1.491,3.494,3.485c0,1.997-1.491,3.488-3.494,3.488C148.717,64.919,147.216,63.428,147.216,61.431 M153.8,61.431   c0-1.772-1.315-3.098-3.091-3.098c-1.774,0-3.088,1.314-3.088,3.098c0,1.775,1.325,3.101,3.088,3.101   C152.485,64.531,153.8,63.206,153.8,61.431"
   id="path100" />
	<polygon
   clip-path="url(#SVGID_14_)"
   fill="#3C3C3B"
   points="161.365,58.073 158.379,64.788 158.043,64.788 154.99,58.073    155.41,58.073 158.21,64.224 160.951,58.073  "
   id="polygon102" />
	<path
   clip-path="url(#SVGID_14_)"
   fill="#3C3C3B"
   d="M169.044,58.075v6.713h-0.348l-0.044-1.753   c-0.538,1.137-1.658,1.884-3.065,1.884c-1.952,0-3.426-1.505-3.426-3.486c0-1.987,1.474-3.487,3.426-3.487   c1.407,0,2.529,0.746,3.067,1.885l0.05-1.757L169.044,58.075z M168.639,61.433c0-1.792-1.277-3.1-3.031-3.1   c-1.733,0-3.042,1.339-3.042,3.1c0,1.769,1.309,3.099,3.042,3.099C167.362,64.531,168.639,63.222,168.639,61.433"
   id="path104" />
	<path
   clip-path="url(#SVGID_14_)"
   fill="#3C3C3B"
   d="M170.89,61.431c0-2.002,1.486-3.485,3.447-3.485   c1.486,0,2.653,0.839,3.125,2.111h-0.403c-0.471-1.074-1.494-1.724-2.722-1.724c-1.741,0-3.044,1.332-3.044,3.098   c0,1.758,1.316,3.101,3.044,3.101c1.219,0,2.237-0.641,2.737-1.745h0.41c-0.499,1.31-1.692,2.133-3.147,2.133   C172.385,64.919,170.89,63.414,170.89,61.431"
   id="path106" />
	<path
   clip-path="url(#SVGID_14_)"
   fill="#3C3C3B"
   d="M179.09,55.89h0.585v0.692h-0.585V55.89z M179.184,58.073h0.396v6.715h-0.396   V58.073z"
   id="path108" />
	<path
   clip-path="url(#SVGID_14_)"
   fill="#3C3C3B"
   d="M181.434,61.431c0-2.008,1.5-3.485,3.494-3.485   c2.002,0,3.493,1.491,3.493,3.485c0,1.997-1.491,3.488-3.493,3.488C182.934,64.919,181.434,63.428,181.434,61.431 M188.018,61.431   c0-1.772-1.315-3.098-3.09-3.098c-1.775,0-3.089,1.314-3.089,3.098c0,1.775,1.325,3.101,3.089,3.101   C186.703,64.531,188.018,63.206,188.018,61.431"
   id="path110" />
	<path
   clip-path="url(#SVGID_14_)"
   fill="#3C3C3B"
   d="M195.921,60.815v3.973h-0.396v-3.903c0-1.602-0.873-2.567-2.312-2.567   c-1.37,0-2.542,1.177-2.542,2.561v3.91h-0.397v-6.715h0.312l0.072,1.55c0.456-0.991,1.476-1.679,2.631-1.679   C194.909,57.944,195.921,59.085,195.921,60.815"
   id="path112" />
	<path
   clip-path="url(#SVGID_14_)"
   fill="#3C3C3B"
   d="M201.645,55.89h0.586v0.692h-0.586V55.89z M201.737,58.073h0.396v6.715h-0.396   V58.073z"
   id="path114" />
	<path
   clip-path="url(#SVGID_14_)"
   fill="#3C3C3B"
   d="M210.233,60.815v3.973h-0.397v-3.903c0-1.602-0.871-2.567-2.31-2.567   c-1.373,0-2.544,1.177-2.544,2.561v3.91h-0.397v-6.715h0.313l0.071,1.55c0.458-0.991,1.475-1.679,2.631-1.679   C209.219,57.944,210.233,59.085,210.233,60.815"
   id="path116" />
	<path
   clip-path="url(#SVGID_14_)"
   fill="#3C3C3B"
   d="M211.925,62.961h0.39c0.105,1.004,0.907,1.583,2.177,1.583   c1.279,0,2.13-0.604,2.13-1.534c0-1.163-1.095-1.366-2.202-1.553c-1.163-0.198-2.361-0.408-2.361-1.726   c0-1.065,0.962-1.787,2.38-1.787c1.428,0,2.336,0.718,2.399,1.876h-0.381c-0.065-0.947-0.809-1.509-2.024-1.509   c-1.196,0-1.985,0.565-1.985,1.409c0,1.009,0.97,1.171,2.063,1.354c1.176,0.194,2.506,0.434,2.506,1.922   c0,1.158-1.015,1.922-2.535,1.922C212.971,64.919,212.029,64.18,211.925,62.961"
   id="path118" />
	<path
   clip-path="url(#SVGID_14_)"
   fill="#3C3C3B"
   d="M225.706,61.431c0,1.983-1.418,3.488-3.409,3.488   c-1.368,0-2.5-0.741-3.052-1.867v4.108h-0.398v-9.087h0.308l0.078,1.759c0.55-1.139,1.688-1.887,3.064-1.887   C224.288,57.945,225.706,59.445,225.706,61.431 M225.306,61.431c0-1.79-1.277-3.098-3.03-3.098c-1.735,0-3.043,1.33-3.043,3.098   c0,1.762,1.308,3.101,3.043,3.101C224.028,64.531,225.306,63.222,225.306,61.431"
   id="path120" />
	<path
   clip-path="url(#SVGID_14_)"
   fill="#3C3C3B"
   d="M227.47,55.89h0.583v0.692h-0.583V55.89z M227.563,58.073h0.396v6.715h-0.396   V58.073z"
   id="path122" />
	<path
   clip-path="url(#SVGID_14_)"
   fill="#3C3C3B"
   d="M233.751,58.055v0.384h-0.604c-1.402,0-2.34,1.085-2.34,2.571v3.778h-0.398   v-6.715h0.313l0.064,1.522c0.418-0.942,1.25-1.541,2.386-1.541H233.751z"
   id="path124" />
	<path
   clip-path="url(#SVGID_14_)"
   fill="#3C3C3B"
   d="M241.107,58.075v6.713h-0.347l-0.044-1.753   c-0.54,1.137-1.658,1.884-3.065,1.884c-1.953,0-3.425-1.505-3.425-3.486c0-1.987,1.472-3.487,3.425-3.487   c1.408,0,2.53,0.746,3.065,1.885l0.053-1.757L241.107,58.075z M240.704,61.433c0-1.792-1.277-3.1-3.03-3.1   c-1.735,0-3.044,1.339-3.044,3.1c0,1.769,1.309,3.099,3.044,3.099C239.427,64.531,240.704,63.222,240.704,61.433"
   id="path126" />
	<path
   clip-path="url(#SVGID_14_)"
   fill="#3C3C3B"
   d="M249.813,55.702v9.086h-0.333l-0.056-1.711   c-0.547,1.114-1.659,1.842-3.046,1.842c-1.962,0-3.423-1.505-3.423-3.488c0-1.985,1.461-3.485,3.423-3.485   c1.38,0,2.486,0.719,3.036,1.822v-4.065H249.813z M249.433,61.431c0-1.787-1.281-3.098-3.034-3.098c-1.733,0-3.04,1.327-3.04,3.098   c0,1.763,1.307,3.101,3.04,3.101C248.151,64.531,249.433,63.215,249.433,61.431"
   id="path128" />
	<path
   clip-path="url(#SVGID_14_)"
   fill="#3C3C3B"
   d="M258.54,58.075v6.713h-0.349l-0.043-1.753   c-0.538,1.137-1.657,1.884-3.065,1.884c-1.951,0-3.425-1.505-3.425-3.486c0-1.987,1.474-3.487,3.425-3.487   c1.408,0,2.53,0.746,3.066,1.885l0.052-1.757L258.54,58.075z M258.136,61.433c0-1.792-1.277-3.1-3.031-3.1   c-1.733,0-3.043,1.339-3.043,3.1c0,1.769,1.31,3.099,3.043,3.099C256.858,64.531,258.136,63.222,258.136,61.433"
   id="path130" />
	<path
   clip-path="url(#SVGID_14_)"
   fill="#3C3C3B"
   d="M270.552,61.553h-6.268c0.06,1.719,1.312,2.975,2.973,2.975   c1.184,0,2.129-0.615,2.667-1.654h0.423c-0.636,1.328-1.717,2.046-3.09,2.046c-1.916,0-3.367-1.505-3.367-3.497   c0-1.973,1.451-3.477,3.367-3.477c1.929,0,3.301,1.504,3.301,3.44C270.558,61.438,270.554,61.5,270.552,61.553 M267.257,58.326   c-1.625,0-2.854,1.197-2.968,2.851h5.876C270.063,59.479,268.835,58.326,267.257,58.326"
   id="path132" />
	<path
   clip-path="url(#SVGID_14_)"
   fill="#3C3C3B"
   d="M278.009,60.815v3.973h-0.397v-3.903c0-1.602-0.871-2.567-2.311-2.567   c-1.371,0-2.543,1.177-2.543,2.561v3.91h-0.397v-6.715h0.313l0.071,1.55c0.458-0.991,1.475-1.679,2.631-1.679   C276.995,57.944,278.009,59.085,278.009,60.815"
   id="path134" />
	<path
   clip-path="url(#SVGID_14_)"
   fill="#3C3C3B"
   d="M283.731,55.89h0.584v0.692h-0.584V55.89z M283.824,58.073h0.397v6.715h-0.397   V58.073z"
   id="path136" />
	<path
   clip-path="url(#SVGID_14_)"
   fill="#3C3C3B"
   d="M292.318,60.815v3.973h-0.396v-3.903c0-1.602-0.871-2.567-2.311-2.567   c-1.37,0-2.542,1.177-2.542,2.561v3.91h-0.397v-6.715h0.313l0.072,1.55c0.456-0.991,1.476-1.679,2.631-1.679   C291.307,57.944,292.318,59.085,292.318,60.815"
   id="path138" />
	<path
   clip-path="url(#SVGID_14_)"
   fill="#3C3C3B"
   d="M300.606,58.075v5.726c0,2.173-1.2,3.489-3.177,3.489   c-1.499,0-2.559-0.758-2.975-2.052h0.398c0.397,1.08,1.342,1.681,2.576,1.681c1.723,0,2.785-1.147,2.785-3.082v-1.023   c-0.529,1.056-1.596,1.736-2.891,1.736c-1.857,0-3.271-1.424-3.271-3.303c0-1.867,1.422-3.303,3.271-3.303   c1.317,0,2.406,0.721,2.921,1.817l0.059-1.687H300.606z M300.211,61.247c0-1.675-1.216-2.918-2.855-2.918   c-1.65,0-2.898,1.266-2.898,2.918c0,1.661,1.248,2.916,2.898,2.916C299.005,64.163,300.211,62.93,300.211,61.247"
   id="path140" />
	<path
   clip-path="url(#SVGID_14_)"
   fill="#3C3C3B"
   d="M309.119,61.553h-6.267c0.061,1.719,1.312,2.975,2.973,2.975   c1.186,0,2.13-0.615,2.667-1.654h0.424c-0.636,1.328-1.717,2.046-3.091,2.046c-1.915,0-3.367-1.505-3.367-3.497   c0-1.973,1.452-3.477,3.367-3.477c1.93,0,3.302,1.504,3.302,3.44C309.127,61.438,309.123,61.5,309.119,61.553 M305.825,58.326   c-1.624,0-2.855,1.197-2.967,2.851h5.876C308.633,59.479,307.404,58.326,305.825,58.326"
   id="path142" />
	<path
   clip-path="url(#SVGID_14_)"
   fill="#3C3C3B"
   d="M316.578,60.815v3.973h-0.398v-3.903c0-1.602-0.872-2.567-2.31-2.567   c-1.371,0-2.543,1.177-2.543,2.561v3.91h-0.398v-6.715h0.314l0.07,1.55c0.457-0.991,1.476-1.679,2.631-1.679   C315.563,57.944,316.578,59.085,316.578,60.815"
   id="path144" />
	<rect
   x="334.643"
   y="58.073"
   clip-path="url(#SVGID_14_)"
   fill="#3C3C3B"
   width="0.397"
   height="6.715"
   id="rect146" />
	<path
   clip-path="url(#SVGID_14_)"
   fill="#3C3C3B"
   d="M327.82,61.553h-6.268c0.06,1.719,1.312,2.975,2.973,2.975   c1.185,0,2.129-0.615,2.667-1.654h0.423c-0.634,1.328-1.717,2.046-3.09,2.046c-1.916,0-3.367-1.505-3.367-3.497   c0-1.973,1.451-3.477,3.367-3.477c1.929,0,3.301,1.504,3.301,3.44C327.826,61.438,327.822,61.5,327.82,61.553 M324.525,58.326   c-1.625,0-2.854,1.197-2.968,2.851h5.876C327.332,59.479,326.104,58.326,324.525,58.326"
   id="path148" />
	<path
   clip-path="url(#SVGID_14_)"
   fill="#3C3C3B"
   d="M332.97,58.055v0.384h-0.604c-1.4,0-2.34,1.085-2.34,2.571v3.778h-0.398   v-6.715h0.314l0.065,1.522c0.416-0.942,1.25-1.541,2.384-1.541H332.97z"
   id="path150" />
	<path
   clip-path="url(#SVGID_14_)"
   fill="#3C3C3B"
   d="M343.485,58.075v6.713h-0.349l-0.044-1.753   c-0.537,1.137-1.656,1.884-3.063,1.884c-1.953,0-3.427-1.505-3.427-3.486c0-1.987,1.474-3.487,3.427-3.487   c1.408,0,2.527,0.746,3.064,1.885l0.054-1.757L343.485,58.075z M343.081,61.433c0-1.792-1.275-3.1-3.031-3.1   c-1.733,0-3.043,1.339-3.043,3.1c0,1.769,1.31,3.099,3.043,3.099C341.806,64.531,343.081,63.222,343.081,61.433"
   id="path152" />
	
		<rect
   x="334.189"
   y="55.72"
   transform="matrix(-0.6654 0.7465 -0.7465 -0.6654 600.2092 -157.2116)"
   clip-path="url(#SVGID_14_)"
   fill="#3C3C3B"
   width="2.3"
   height="0.387"
   id="rect154" />
	
		<rect
   x="183.853"
   y="56.051"
   transform="matrix(-0.6656 0.7463 -0.7463 -0.6656 350.1208 -44.3813)"
   clip-path="url(#SVGID_14_)"
   fill="#3C3C3B"
   width="2.3"
   height="0.387"
   id="rect156" />
</g>
<g
   id="g936"
   transform="matrix(1.4224106,0,0,1.468032,-8.1975148,-342.90088)"><g
     transform="matrix(0.55636017,0,0,-0.58183391,53.999541,251.22913)"
     id="g1470"><path
       inkscape:connector-curvature="0"
       id="path1472"
       style="fill:none;stroke:#ee2346;stroke-width:8;stroke-linecap:round;stroke-linejoin:round;stroke-miterlimit:10;stroke-dasharray:none;stroke-opacity:1"
       d="M 0,0 V 3.995 C 0,16.334 -9.806,26.336 -21.902,26.336 H -60.798 -73.18 c -5.258,0 -9.52,-4.347 -9.52,-9.71 V 3.995 0 -38.45 -42.445 -54.986 c 0,-5.413 4.302,-9.801 9.608,-9.801 h 12.294 38.896 C -9.806,-64.787 0,-54.784 0,-42.445 v 3.995 c 0,8.193 -4.337,15.336 -10.784,19.225 C -4.337,-15.337 0,-8.194 0,0 Z" /></g><g
     transform="matrix(0.55636017,0,0,-0.58183391,53.999541,251.22913)"
     id="g1474"><path
       inkscape:connector-curvature="0"
       id="path1476"
       style="fill:#3c225f;fill-opacity:1;fill-rule:nonzero;stroke:none"
       d="M 0,0 V 3.995 C 0,16.334 -9.806,26.336 -21.902,26.336 H -60.798 -73.18 c -5.258,0 -9.52,-4.347 -9.52,-9.71 V 3.995 0 -38.45 -42.445 -54.986 c 0,-5.413 4.302,-9.801 9.608,-9.801 h 12.294 38.896 C -9.806,-64.787 0,-54.784 0,-42.445 v 3.995 c 0,8.193 -4.337,15.336 -10.784,19.225 C -4.337,-15.337 0,-8.194 0,0" /></g><g
     id="g1478"
     transform="matrix(0.55636017,0,0,-0.58183391,-47.814341,605.13559)"><g
       clip-path="url(#clipPath1484-3-3-7-367-6)"
       id="g1480"><g
         id="g1486"><g
           id="g1488"><path
             inkscape:connector-curvature="0"
             id="path1496"
             style="fill:url(#linearGradient1610);stroke:none"
             d="m 112.251,602.83 c -2.863,0 -5.184,-2.597 -5.184,-5.8 v 0 -39.866 c 0,-2.476 1.793,-4.483 4.007,-4.483 v 0 h 23.12 c 0,0 20.371,2.309 20.371,25.075 v 0 c 0,23.26 -20.076,25.074 -20.076,25.074 v 0 z" /></g></g></g></g><g
     transform="matrix(0.55636017,0,0,-0.58183391,17.482781,259.34751)"
     id="g1506"><path
       inkscape:connector-curvature="0"
       id="path1508"
       style="fill:#ffffff;fill-opacity:1;fill-rule:nonzero;stroke:none"
       d="m 0,0 c -0.289,0.29 -0.674,0.45 -1.082,0.45 h -10e-4 c -0.408,0 -0.793,-0.159 -1.082,-0.449 -0.596,-0.596 -0.597,-1.567 0,-2.165 3.837,-3.836 5.95,-8.946 5.95,-14.388 0,-5.441 -2.113,-10.552 -5.951,-14.388 -0.595,-0.597 -0.595,-1.568 0.002,-2.165 0.292,-0.289 0.675,-0.449 1.079,-0.449 0.41,0 0.795,0.16 1.084,0.45 4.416,4.413 6.848,10.292 6.848,16.552 C 6.847,-10.292 4.415,-4.414 0,0 m -6.372,-4.218 v 0 c -0.597,0.596 -1.57,0.596 -2.164,0 -0.291,-0.29 -0.45,-0.675 -0.45,-1.083 0,-0.408 0.159,-0.793 0.45,-1.082 5.606,-5.607 5.606,-14.73 0,-20.337 -0.29,-0.289 -0.449,-0.673 -0.45,-1.081 0,-0.409 0.159,-0.794 0.448,-1.083 0.289,-0.29 0.675,-0.45 1.085,-0.45 0.407,0 0.802,0.165 1.081,0.448 3.291,3.289 5.104,7.67 5.104,12.336 0,4.664 -1.813,9.044 -5.104,12.332 M 6.372,4.221 v 0 c -0.597,0.595 -1.568,0.593 -2.169,0 -0.598,-0.598 -0.598,-1.571 0,-2.169 4.965,-4.961 7.699,-11.568 7.699,-18.605 0,-7.034 -2.734,-13.642 -7.699,-18.607 -0.289,-0.289 -0.449,-0.673 -0.449,-1.081 -10e-4,-0.408 0.159,-0.793 0.448,-1.083 0.285,-0.285 0.68,-0.449 1.085,-0.449 0.41,0 0.795,0.159 1.085,0.449 5.541,5.541 8.593,12.917 8.593,20.771 0,7.855 -3.052,15.233 -8.593,20.774" /></g><g
     transform="matrix(0.55636017,0,0,-0.58183391,7.9885511,264.59915)"
     id="g1510"><path
       inkscape:connector-curvature="0"
       id="path1512"
       style="fill:#ffffff;fill-opacity:1;fill-rule:nonzero;stroke:none"
       d="m 0,0 v -2.186 c 2.471,-0.52 4.332,-2.716 4.332,-5.34 0,-2.623 -1.861,-4.819 -4.332,-5.339 v -2.186 c 3.664,0.545 6.484,3.712 6.484,7.525 0,3.814 -2.82,6.98 -6.484,7.526" /></g></g></svg>
